<?xml version="1.0" encoding="UTF-8"?>
<svg version="1.1" xmlns="http://www.w3.org/2000/svg" width="500" height="500">
<path d="M0 0 C1.47919922 -0.01836914 1.47919922 -0.01836914 2.98828125 -0.03710938 C11.83605081 -0.05459509 20.76065591 0.19663364 27.75 6.1875 C28.53117187 7.67830078 28.53117187 7.67830078 29.328125 9.19921875 C32.7568889 13.42987098 35.91432677 13.51940938 41.125 14.25 C42.93234017 14.55859815 44.73835458 14.87505988 46.54296875 15.19921875 C47.42903809 15.35825684 48.31510742 15.51729492 49.22802734 15.68115234 C61.00121342 18.04490723 72.51716982 22.85287815 79.53125 32.96484375 C82.11586449 37.67845159 83.75 42.80286037 83.75 48.1875 C84.925625 48.39375 86.10125 48.6 87.3125 48.8125 C92.07802197 50.01446114 95.69089147 52.3181411 98.75 56.1875 C101.14285615 61.43429422 101.08329302 66.53179951 101.0625 72.1875 C101.07861328 73.0640625 101.09472656 73.940625 101.11132812 74.84375 C101.11525108 80.05343948 100.66644983 83.69216835 97.75 88.1875 C94.5184594 91.4190406 92.66830263 93.02917196 88.125 93.8125 C84.61762308 94.81144945 84.61762308 94.81144945 83.55859375 97.5390625 C82.88625226 99.4954444 82.24360082 101.46224716 81.62890625 103.4375 C79.43378669 110.30578519 74.62304364 115.22744166 68.75 119.1875 C57.74691137 124.77573532 43.22053447 129.82827845 30.75 129.1875 C30.75 129.8475 30.75 130.5075 30.75 131.1875 C31.905 131.3525 33.06 131.5175 34.25 131.6875 C39.24281987 132.78017783 43.58109082 134.85509406 48.125 137.125 C49.1778418 137.64707031 49.1778418 137.64707031 50.25195312 138.1796875 C55.37914838 140.80520778 55.37914838 140.80520778 57.29321289 142.77832031 C59.5299221 144.94193445 61.76878761 144.72791606 64.8125 145 C74.79145579 146.35420757 82.47289822 151.38951453 88.75 159.1875 C102.55940077 177.76742104 116.20143208 207.67446835 113.75 231.1875 C112.02145761 237.99301832 109.57463582 242.26220195 103.75 246.1875 C99.17415054 248.47542473 93.20768795 247.66405183 88.5 246.125 C77.38459053 238.29368878 75.36010133 225.66884584 73 213 C72.77957031 211.85724609 72.55914062 210.71449219 72.33203125 209.53710938 C71.79662767 206.7553386 71.26944217 203.97228721 70.75 201.1875 C70.57984375 201.80044922 70.4096875 202.41339844 70.234375 203.04492188 C63.54869014 226.81822149 54.52899903 251.34141513 32 264.5 C16.424132 273.13438016 0.02200452 275.19132409 -17.16015625 270.37109375 C-35.11247395 264.33648907 -48.92600737 251.23873503 -57.4375 234.5 C-62.48674179 224.2039374 -66.07529158 213.45644364 -68.25 202.1875 C-69.95950692 205.25483359 -70.73742703 208.02908599 -71.36328125 211.4765625 C-71.55986328 212.50136719 -71.75644531 213.52617187 -71.95898438 214.58203125 C-72.3567042 216.71092636 -72.74750052 218.8411283 -73.13085938 220.97265625 C-74.99632635 230.58191057 -77.76423746 238.86968512 -85.6015625 245.12890625 C-90.03719388 247.97738043 -95.18185774 247.74886989 -100.25 247.1875 C-106.40742885 244.22281204 -109.23879353 239.93220326 -111.5625 233.625 C-115.84425365 212.33516937 -103.12203079 182.62377201 -91.51269531 165.16015625 C-85.30077278 156.37794867 -77.91917489 148.17919431 -67.25 145.1875 C-65.60701416 145.04531853 -63.96026728 144.94194055 -62.3125 144.875 C-57.02818049 144.52756003 -54.35362456 142.35421455 -50.25390625 139.17578125 C-44.14159538 135.13005143 -37.07164161 132.79111959 -30.25 130.1875 C-31.28386841 129.99957886 -31.28386841 129.99957886 -32.33862305 129.80786133 C-69.60758268 122.94424686 -69.60758268 122.94424686 -80.125 109.9375 C-82.15683113 106.92053863 -82.80616754 104.03738102 -83.5625 100.5 C-84.42473053 96.58056901 -84.42473053 96.58056901 -87.0703125 93.76953125 C-88.46754724 93.1379399 -89.88383973 92.54674099 -91.31640625 92 C-95.19054911 90.37207734 -96.80141264 87.28224749 -98.33203125 83.546875 C-99.42704353 79.53959603 -99.59448707 75.94522995 -99.5625 71.8125 C-99.55686035 71.05807617 -99.5512207 70.30365234 -99.54541016 69.52636719 C-99.41408414 63.52697873 -99.12096448 58.3719606 -94.890625 53.6796875 C-92.54256706 51.561594 -90.57495894 50.26873973 -87.5 49.5 C-85.06764823 48.43321652 -85.06764823 48.43321652 -84.70703125 46.19921875 C-84.57683594 45.37035156 -84.44664062 44.54148438 -84.3125 43.6875 C-83.00687853 35.53618759 -79.34412754 29.38566928 -72.75 24.375 C-61.92427899 17.4873781 -48.87022964 14.53280916 -36.2890625 12.7734375 C-33.82628246 12.40510383 -31.58805018 12.04571286 -29.25 11.1875 C-27.07053354 8.33498615 -27.07053354 8.33498615 -25.25 5.1875 C-17.52817124 -0.16742038 -9.05738068 0.00582843 0 0 Z " fill="#D6DAE2" transform="translate(249.25,53.8125)"/>
<path d="M0 0 C3.65467305 0.0291668 7.3079044 0.0205068 10.96264648 0.00756836 C32.41229929 0.02786491 58.90492366 0.44415547 75.32788086 16.46655273 C79.1037807 21.15580373 78.77956332 25.76583641 78.76147461 31.51733398 C78.76671646 32.49010788 78.77195831 33.46288177 78.77735901 34.46513367 C78.78377193 36.52020312 78.78245167 38.57530932 78.77392578 40.63037109 C78.76543778 43.75807957 78.79415243 46.88394742 78.82592773 50.01147461 C78.82754057 52.01342719 78.82696064 54.01538298 78.82397461 56.01733398 C78.83520859 56.9446785 78.84644257 57.87202301 78.85801697 58.82746887 C78.77758646 66.40835684 76.84143025 72.09454822 71.51538086 77.59155273 C62.73514601 84.49165164 50.10423331 87.60898513 39.32788086 89.46655273 C38.15741211 89.67151367 36.98694336 89.87647461 35.78100586 90.08764648 C4.99621525 94.73302072 -38.90102528 95.61233045 -65.67211914 77.46655273 C-70.98759066 70.92443394 -71.98706302 65.26314993 -72.00805664 57.10717773 C-72.01471344 56.20336365 -72.02137024 55.29954956 -72.02822876 54.36834717 C-72.03833446 52.45872017 -72.04304642 50.54905801 -72.04272461 48.6394043 C-72.04708383 45.74003762 -72.08338644 42.84221148 -72.12133789 39.94311523 C-72.12720954 38.08114123 -72.1311766 36.21916005 -72.13305664 34.35717773 C-72.14742767 33.50061584 -72.16179871 32.64405396 -72.17660522 31.76153564 C-72.12169135 24.40739019 -70.21363021 18.34247315 -65.29711914 12.77905273 C-46.86616887 -0.35356539 -21.61016121 -0.18783847 0 0 Z " fill="#152E3D" transform="translate(246.672119140625,85.533447265625)"/>
<path d="M0 0 C6.20995069 1.22081649 12.38823079 2.58753667 18.56689453 3.95629883 C20.028755 4.27852283 21.49133327 4.59750648 22.95458984 4.91333008 C25.07052328 5.3704645 27.18382057 5.8383551 29.296875 6.30859375 C30.55854492 6.58501709 31.82021484 6.86144043 33.12011719 7.14624023 C34.54565918 7.56885132 34.54565918 7.56885132 36 8 C37.4783226 10.95664519 37.06032783 13.74229737 37 17 C37.97582031 17.06058594 38.95164063 17.12117188 39.95703125 17.18359375 C41.86548828 17.30927734 41.86548828 17.30927734 43.8125 17.4375 C45.07707031 17.51871094 46.34164062 17.59992188 47.64453125 17.68359375 C51 18 51 18 54 19 C58.20382381 19.23953986 62.41508093 19.18977118 66.625 19.1875 C67.83583252 19.18814453 69.04666504 19.18878906 70.29418945 19.18945312 C79.65617789 19.13465732 88.75855266 18.45986192 98 17 C98 14.03 98 11.06 98 8 C102.12442277 7.03917129 106.24964061 6.08179857 110.375 5.125 C111.53128906 4.85558594 112.68757813 4.58617187 113.87890625 4.30859375 C120.56617667 2.75956501 127.25829929 1.29284972 134 0 C133.39457788 16.95181944 123.90495338 33.53422314 113 46 C112.40703125 46.69996094 111.8140625 47.39992188 111.203125 48.12109375 C100.3481258 60.01984287 84.10957438 66.25211741 68.2578125 67.03515625 C49.49038878 66.83263009 34.05511523 59.16247638 21 46 C10.91300475 35.3752789 0.51582353 17.07349459 -0.125 2.07421875 C-0.08375 1.38972656 -0.0425 0.70523437 0 0 Z " fill="#BCC0C9" transform="translate(183,260)"/>
<path d="M0 0 C9.15582656 -0.91558266 15.94629322 2.16982223 23.2265625 7.6875 C40.96919378 24.08706357 51.9315596 54.97650742 54.23828125 78.421875 C54.46185356 85.43498521 53.31142446 92.31688503 48.46875 97.703125 C43.73421681 101.74140331 40.56237042 102.30235068 34.53125 102.20703125 C29.4525432 101.79164319 26.31233995 99.56559891 22.875 96 C16.45160321 87.81971978 14.73200686 76.64749554 12.75 66.6875 C12.61660217 66.02535492 12.48320435 65.36320984 12.34576416 64.68099976 C10.05668406 53.07629422 9.49478626 41.96265316 10.04589844 30.14916992 C10.36724441 21.73143007 9.88036205 12.87515876 4.40869141 6.00073242 C2.99146263 4.61166466 1.50187834 3.29707675 0 2 C0 1.34 0 0.68 0 0 Z " fill="#D0D4DC" transform="translate(309,199)"/>
<path d="M0 0 C-1.03447661 2.93101707 -2.16510072 5.23966234 -3.9375 7.8125 C-9.13700644 15.84810085 -9.23646245 22.13097879 -8.88217163 31.5098877 C-8.46232298 43.87914763 -9.26802963 55.61084628 -11.6875 67.75 C-11.93153564 69.00240479 -12.17557129 70.25480957 -12.42700195 71.54516602 C-14.72402195 82.33309903 -17.23946079 92.68174783 -26.1328125 99.79296875 C-30.68612951 102.736431 -35.77215466 102.57905931 -41 102 C-47.15742885 99.03531204 -49.98879353 94.74470326 -52.3125 88.4375 C-56.59425365 67.14766937 -43.87203079 37.43627201 -32.26269531 19.97265625 C-24.24632548 8.63938166 -14.67153828 -1.06702097 0 0 Z " fill="#C4C8D1" transform="translate(190,199)"/>
<path d="M0 0 C0.02694851 1.95825873 0.04637218 3.91662226 0.0625 5.875 C0.07410156 6.96554688 0.08570313 8.05609375 0.09765625 9.1796875 C0 12 0 12 -1 14 C-1.66 14 -2.32 14 -3 14 C-3.24234375 14.61617187 -3.4846875 15.23234375 -3.734375 15.8671875 C-5.28819974 18.48566993 -6.45804212 18.99492181 -9.25 20.125 C-9.99765625 20.43695313 -10.7453125 20.74890625 -11.515625 21.0703125 C-12.33546875 21.37710938 -13.1553125 21.68390625 -14 22 C-14.94230469 22.3609375 -15.88460937 22.721875 -16.85546875 23.09375 C-27.13680392 26.05681803 -38.34513888 24.22571117 -48 20 C-51.78607968 17.73549574 -54.37612258 15.14419396 -56 11 C-56.1953125 8.203125 -56.1953125 8.203125 -56.125 5.25 C-56.09792969 3.77273437 -56.09792969 3.77273437 -56.0703125 2.265625 C-56.04710937 1.51796875 -56.02390625 0.7703125 -56 0 C-55.17434036 0.00333092 -55.17434036 0.00333092 -54.33200073 0.00672913 C-48.58917898 0.02889861 -42.84636945 0.04395524 -37.10351562 0.05493164 C-34.96190904 0.05995204 -32.82030586 0.06676969 -30.67871094 0.07543945 C-27.59569454 0.08760549 -24.51272357 0.09325133 -21.4296875 0.09765625 C-19.99965897 0.10539818 -19.99965897 0.10539818 -18.54074097 0.11329651 C-12.3079288 0.11381931 -6.02670222 -1.59530353 0 0 Z " fill="#B6BAC5" transform="translate(278,183)"/>
<path d="M0 0 C0.33 14.19 0.66 28.38 1 43 C-1.84402297 44.42201148 -3.99508253 43.65854393 -6.96484375 42.85546875 C-11.27445753 41.04394204 -13.38096082 37.49003818 -15.11328125 33.3203125 C-16.17797774 29.33356351 -16.34428614 25.73176973 -16.3125 21.625 C-16.30686035 20.87057617 -16.3012207 20.11615234 -16.29541016 19.33886719 C-16.14506469 12.4706099 -15.4149803 7.02687923 -10.25 2 C-7 0 -7 0 0 0 Z " fill="#BEC2CB" transform="translate(166,104)"/>
<path d="M0 0 C3.13780801 1.62701156 5.24513472 3.04821334 7.4375 5.8125 C8.2559643 8.99541671 7.51115395 11.78756534 7 15 C3.52085059 15.02887814 0.04173169 15.04675687 -3.4375 15.0625 C-4.92733398 15.07506836 -4.92733398 15.07506836 -6.44726562 15.08789062 C-7.39150391 15.09111328 -8.33574219 15.09433594 -9.30859375 15.09765625 C-10.18314209 15.10289307 -11.05769043 15.10812988 -11.95874023 15.11352539 C-14 15 -14 15 -15 14 C-15.38301738 10.74435228 -15.67642942 8.13831966 -13.953125 5.23828125 C-9.80245547 0.19643856 -6.42437716 -0.87170917 0 0 Z " fill="#5BE2ED" transform="translate(289,120)"/>
<path d="M0 0 C3.47485838 2.07012839 5.74352278 4.11634312 7 8 C7.1875 11.1875 7.1875 11.1875 7 14 C6 15 6 15 3.86694336 15.11352539 C2.95050049 15.10828857 2.03405762 15.10305176 1.08984375 15.09765625 C0.10048828 15.09443359 -0.88886719 15.09121094 -1.90820312 15.08789062 C-2.94912109 15.07951172 -3.99003906 15.07113281 -5.0625 15.0625 C-6.10728516 15.05798828 -7.15207031 15.05347656 -8.22851562 15.04882812 C-10.8190666 15.03699913 -13.40950559 15.02051689 -16 15 C-16.34031784 7.53091891 -16.34031784 7.53091891 -13.625 4.125 C-13.18414062 3.55007812 -12.74328125 2.97515625 -12.2890625 2.3828125 C-9.06149562 -1.07948651 -4.386765 -0.55403779 0 0 Z " fill="#6EE6F2" transform="translate(219,120)"/>
<path d="M0 0 C0 0.99 0 1.98 0 3 C-22.5770751 11 -22.5770751 11 -33 11 C-33 13.64 -33 16.28 -33 19 C-49.14168588 23.62437487 -68.57801149 25.51907301 -85 21 C-85 20.67 -85 20.34 -85 20 C-83.67947632 19.970271 -83.67947632 19.970271 -82.33227539 19.93994141 C-59.09240261 19.47780722 -59.09240261 19.47780722 -36 17 C-36 14.03 -36 11.06 -36 8 C-35.24904053 7.82871582 -34.49808105 7.65743164 -33.72436523 7.48095703 C-30.2949605 6.69759181 -26.86622802 5.91132163 -23.4375 5.125 C-22.25607422 4.85558594 -21.07464844 4.58617187 -19.85742188 4.30859375 C-12.81385538 2.70636379 -12.81385538 2.70636379 -5.84765625 0.8046875 C-3 0 -3 0 0 0 Z " fill="#B3B7C0" transform="translate(317,260)"/>
<path d="M0 0 C5.94 0 11.88 0 18 0 C18 5 18 5 16 7.8125 C12.6510238 10.25446181 10.97973056 10.75623214 6.9375 10.48828125 C3.51863105 9.62667113 1.99033712 7.79891158 0 5 C0 3.35 0 1.7 0 0 Z " fill="#56D2E2" transform="translate(241,149)"/>
<path d="M0 0 C0.33 0.99 0.66 1.98 1 3 C3.475 3.495 3.475 3.495 6 4 C6.33 5.32 6.66 6.64 7 8 C7.66 8 8.32 8 9 8 C9.296 15.696 9.296 15.696 7 19 C4.8359375 19.828125 4.8359375 19.828125 2.375 20.25 C1.55773437 20.39953125 0.74046875 20.5490625 -0.1015625 20.703125 C-1.04128906 20.85007813 -1.04128906 20.85007813 -2 21 C-2 20.01 -2 19.02 -2 18 C-2.65226562 18.144375 -3.30453125 18.28875 -3.9765625 18.4375 C-4.85054688 18.623125 -5.72453125 18.80875 -6.625 19 C-7.48351562 19.185625 -8.34203125 19.37125 -9.2265625 19.5625 C-12.19269005 20.03039618 -15.00207333 20.07033259 -18 20 C-18.08160748 18.10489301 -18.13946459 16.20875496 -18.1875 14.3125 C-18.22230469 13.25675781 -18.25710938 12.20101562 -18.29296875 11.11328125 C-17.95791478 7.55277434 -17.21242603 5.7925733 -15 3 C-10.38415823 0.42392069 -5.24114987 -0.40316537 0 0 Z M-14 6 C-16.43769218 9.65653827 -16.23944439 11.69000101 -16 16 C-14.99440206 17.22784809 -14.99440206 17.22784809 -12.95874023 17.11352539 C-12.08419189 17.10828857 -11.20964355 17.10305176 -10.30859375 17.09765625 C-9.36435547 17.09443359 -8.42011719 17.09121094 -7.44726562 17.08789062 C-5.95743164 17.07532227 -5.95743164 17.07532227 -4.4375 17.0625 C-3.44041016 17.05798828 -2.44332031 17.05347656 -1.41601562 17.04882812 C1.05604849 17.03700007 3.52799518 17.02051849 6 17 C6.99088738 12.0376629 6.99088738 12.0376629 5.875 7.25 C3.30145919 4.16175103 1.12687703 2.35376048 -2.92578125 1.6796875 C-7.88395522 1.39956468 -10.43733744 2.33255325 -14 6 Z " fill="#194D61" transform="translate(290,118)"/>
<path d="M0 0 C1.19105377 3.5731613 1.0704232 5.40643641 0 9 C-2.5625 10.375 -2.5625 10.375 -5 11 C-5 11.66 -5 12.32 -5 13 C-5.99 13.495 -5.99 13.495 -7 14 C-7 16.31 -7 18.62 -7 21 C-15.261959 25.59225513 -15.261959 25.59225513 -20 25 C-20.12375 24.030625 -20.2475 23.06125 -20.375 22.0625 C-20.684375 20.5465625 -20.684375 20.5465625 -21 19 C-21.66 18.67 -22.32 18.34 -23 18 C-21.98679687 17.64808594 -20.97359375 17.29617187 -19.9296875 16.93359375 C-10.97517808 13.68480985 -4.83552731 11.05771744 -0.625 2.0625 C-0.315625 1.0415625 -0.315625 1.0415625 0 0 Z " fill="#A5AAB4" transform="translate(324,152)"/>
<path d="M0 0 C-1.47941311 3.72978799 -2.45333585 5.65427186 -5.890625 7.828125 C-7.55351562 8.53195313 -7.55351562 8.53195313 -9.25 9.25 C-10.41015625 9.74371094 -11.5703125 10.23742187 -12.765625 10.74609375 C-17.78706563 12.69281168 -22.6939907 14.03527104 -28 15 C-28.33 14.34 -28.66 13.68 -29 13 C-28.34 12.01 -27.68 11.02 -27 10 C-26.67 10.99 -26.34 11.98 -26 13 C-25.33613281 12.45730469 -24.67226562 11.91460937 -23.98828125 11.35546875 C-23.10527344 10.64003906 -22.22226563 9.92460938 -21.3125 9.1875 C-20.44238281 8.47980469 -19.57226562 7.77210937 -18.67578125 7.04296875 C-14.96345795 4.20859637 -11.23767171 1.92663462 -6.875 0.25 C-6.21242187 -0.01296875 -5.54984375 -0.2759375 -4.8671875 -0.546875 C-3 -1 -3 -1 0 0 Z " fill="#DADFE6" transform="translate(199,86)"/>
<path d="M0 0 C0.144375 0.969375 0.28875 1.93875 0.4375 2.9375 C0.67562341 5.86486773 0.67562341 5.86486773 2 7 C2.33 6.01 2.66 5.02 3 4 C3.66 4 4.32 4 5 4 C5 5.98 5 7.96 5 10 C1.05813705 11.97093148 -3.71272257 11.58286249 -8 11 C-10.3125 8.75 -10.3125 8.75 -11 6 C-10.5 3.8125 -10.5 3.8125 -9 2 C-5.66791821 0.24627274 -3.84722163 0 0 0 Z " fill="#74E7F4" transform="translate(289,123)"/>
<path d="M0 0 C3.74410259 0.72944925 7.45966757 1.54977525 11.17578125 2.41015625 C12.33271484 2.67763672 13.48964844 2.94511719 14.68164062 3.22070312 C15.87982422 3.49849609 17.07800781 3.77628906 18.3125 4.0625 C19.53001953 4.34416016 20.74753906 4.62582031 22.00195312 4.91601562 C25.00145529 5.61001809 28.00079771 6.30470297 31 7 C31 7.66 31 8.32 31 9 C32.32 9 33.64 9 35 9 C35 10.98 35 12.96 35 15 C34.34 15.33 33.68 15.66 33 16 C33 14.35 33 12.7 33 11 C31.88818359 10.87044922 31.88818359 10.87044922 30.75390625 10.73828125 C23.93154503 9.82807639 17.47313436 8.43763161 10.875 6.5 C9.77393921 6.17962769 9.77393921 6.17962769 8.65063477 5.8527832 C5.38916583 4.86617461 2.85526925 3.90351283 0 2 C0 1.34 0 0.68 0 0 Z " fill="#ACB0B9" transform="translate(183,260)"/>
<path d="M0 0 C0.33 0.99 0.66 1.98 1 3 C2.86011719 2.50693359 2.86011719 2.50693359 4.7578125 2.00390625 C13.34604071 0.28595789 22.16020587 0.82864453 30.875 0.9375 C33.54850542 0.96519848 36.22195522 0.98987217 38.89553833 1.00868225 C40.54945859 1.02086174 42.20335061 1.03838802 43.85714722 1.06199646 C48.03703347 1.13900151 48.03703347 1.13900151 52.11721802 0.36988831 C52.73853607 0.24782516 53.35985413 0.12576202 54 0 C56 2 56 2 56 5 C55.17749756 4.9285376 54.35499512 4.8570752 53.50756836 4.78344727 C41.85410652 3.87986402 30.24538315 3.88598217 18.5625 3.9375 C16.55924592 3.94252882 14.55599061 3.94708926 12.55273438 3.95117188 C7.70179181 3.96205928 2.85090997 3.97924642 -2 4 C-2 3.34 -2 2.68 -2 2 C-1.34 2 -0.68 2 0 2 C0 1.34 0 0.68 0 0 Z " fill="#B9BDC6" transform="translate(223,62)"/>
<path d="M0 0 C3.47485838 2.07012839 5.74352278 4.11634312 7 8 C7.1875 11.1875 7.1875 11.1875 7 14 C6 15 6 15 3.86694336 15.11352539 C2.95050049 15.10828857 2.03405762 15.10305176 1.08984375 15.09765625 C0.10048828 15.09443359 -0.88886719 15.09121094 -1.90820312 15.08789062 C-2.94912109 15.07951172 -3.99003906 15.07113281 -5.0625 15.0625 C-6.10728516 15.05798828 -7.15207031 15.05347656 -8.22851562 15.04882812 C-10.8190666 15.03699913 -13.40950559 15.02051689 -16 15 C-16.34031784 7.53091891 -16.34031784 7.53091891 -13.625 4.125 C-13.18414062 3.55007812 -12.74328125 2.97515625 -12.2890625 2.3828125 C-9.06149562 -1.07948651 -4.386765 -0.55403779 0 0 Z M-9 1 C-9 2.32 -9 3.64 -9 5 C-9.61875 5.061875 -10.2375 5.12375 -10.875 5.1875 C-13.24121313 5.82421483 -13.24121313 5.82421483 -14.25 8.375 C-15.13736056 11.02575511 -15.13736056 11.02575511 -15 14 C-8.4 14 -1.8 14 5 14 C5 12.68 5 11.36 5 10 C4.34 10 3.68 10 3 10 C3.33 8.68 3.66 7.36 4 6 C3.195625 5.54625 2.39125 5.0925 1.5625 4.625 C-1 3 -1 3 -2 1 C-4.31 1 -6.62 1 -9 1 Z " fill="#58BECC" transform="translate(219,120)"/>
<path d="M0 0 C0 0.99 0 1.98 0 3 C-23.50402341 11.32845647 -23.50402341 11.32845647 -35 11 C-35 10.34 -35 9.68 -35 9 C-21.3667426 5.55580866 -21.3667426 5.55580866 -15 6 C-15 5.34 -15 4.68 -15 4 C-13.06441401 3.32779649 -11.12645628 2.66241923 -9.1875 2 C-8.10855469 1.62875 -7.02960938 1.2575 -5.91796875 0.875 C-3 0 -3 0 0 0 Z " fill="#A3A7B1" transform="translate(317,260)"/>
<path d="M0 0 C0.97259766 -0.00773437 1.94519531 -0.01546875 2.94726562 -0.0234375 C19.26863095 0.02017336 19.26863095 0.02017336 25.5625 5.25 C21.46246357 5.43636529 19.1654253 5.06868505 15.5625 3.25 C2.4439892 1.1676967 -12.54201495 0.67617931 -24.4375 7.25 C-25.0975 6.92 -25.7575 6.59 -26.4375 6.25 C-18.44143831 0.09918332 -9.8123852 -0.07772186 0 0 Z " fill="#EEF1F4" transform="translate(249.4375,53.75)"/>
<path d="M0 0 C0.81791016 0.34224609 0.81791016 0.34224609 1.65234375 0.69140625 C7.62158324 2.96685993 11.71559582 3.09727692 18 2 C20.55440415 6.31606218 20.55440415 6.31606218 21 9 C19.76690524 11.72967131 18.03472487 13.81946423 16 16 C15.34 15.01 14.68 14.02 14 13 C14.66 12.01 15.32 11.02 16 10 C16.33 8.35 16.66 6.7 17 5 C11.06 5 5.12 5 -1 5 C-0.67 3.35 -0.34 1.7 0 0 Z " fill="#184C5F" transform="translate(242,144)"/>
<path d="M0 0 C0.66 0.33 1.32 0.66 2 1 C2.625 4.0625 2.625 4.0625 3 7 C2.01 7.495 2.01 7.495 1 8 C0.7525 7.401875 0.505 6.80375 0.25 6.1875 C-1.29537476 3.48309418 -2.20647365 2.43257762 -5 1 C-9.69167364 0.19169668 -12.9147782 0.28421541 -16.9375 2.9375 C-19.55685225 6.82684121 -20.33003391 10.41023229 -21 15 C-21.33 15 -21.66 15 -22 15 C-23.0438045 5.68860116 -23.0438045 5.68860116 -20.72265625 1.93359375 C-14.31165897 -4.0994309 -7.81560878 -2.65730699 0 0 Z " fill="#164559" transform="translate(224,120)"/>
<path d="M0 0 C0 2.85449645 -0.34454737 5.23253333 -1 8 C-1.33 8.33 -1.66 8.66 -2 9 C-2.2792944 12.24150779 -2.2318318 15.49789302 -2.25 18.75 C-2.270625 19.6575 -2.29125 20.565 -2.3125 21.5 C-2.34270899 26.66573657 -2.02212159 29.64947332 1 34 C0.67 34.99 0.34 35.98 0 37 C-5.94174276 28.56655867 -5.75949346 20.03474527 -5 10 C-4.14093706 5.96686687 -2.96817466 2.96817466 0 0 Z " fill="#E7E9EE" transform="translate(155,107)"/>
<path d="M0 0 C2.5 1.5 2.5 1.5 4 3 C3.67 5.31 3.34 7.62 3 10 C2.01 10.33 1.02 10.66 0 11 C-0.66 10.34 -1.32 9.68 -2 9 C-1.34 8.34 -0.68 7.68 0 7 C0 5.68 0 4.36 0 3 C-4.95 4.485 -4.95 4.485 -10 6 C-10.33 4.68 -10.66 3.36 -11 2 C-7.3187559 -0.45416273 -4.27738037 -0.59384154 0 0 Z " fill="#70E4F1" transform="translate(289,120)"/>
<path d="M0 0 C1.41623216 -0.05447047 2.83308191 -0.09300508 4.25 -0.125 C5.03890625 -0.14820313 5.8278125 -0.17140625 6.640625 -0.1953125 C9.20731941 0.0171622 10.7916067 0.71345895 13 2 C13 2.66 13 3.32 13 4 C11 5.625 11 5.625 9 7 C9.33 8.65 9.66 10.3 10 12 C9.34 12 8.68 12 8 12 C6.6459068 10.01399663 5.31542376 8.01182457 4 6 C3.2575 5.2575 2.515 4.515 1.75 3.75 C1.1725 3.1725 0.595 2.595 0 2 C0 1.34 0 0.68 0 0 Z " fill="#BCC0C8" transform="translate(309,199)"/>
<path d="M0 0 C4.03108355 3.7210002 5.76321938 5.77476099 6.16113281 11.19482422 C6.20668972 13.75501627 6.23522042 16.31443753 6.25 18.875 C6.270625 19.76058594 6.29125 20.64617187 6.3125 21.55859375 C6.34366741 26.78692717 6.0067614 30.51795848 3 35 C2.01 35.66 1.02 36.32 0 37 C1.875 32.125 1.875 32.125 3 31 C3.28155072 27.09071095 3.23186012 23.16821415 3.25 19.25 C3.270625 18.15171875 3.29125 17.0534375 3.3125 15.921875 C3.32023437 14.32859375 3.32023437 14.32859375 3.328125 12.703125 C3.34214355 11.24374512 3.34214355 11.24374512 3.35644531 9.75488281 C2.94031344 6.53869651 1.7546335 4.69043803 0 2 C0 1.34 0 0.68 0 0 Z " fill="#EDF0F3" transform="translate(344,107)"/>
<path d="M0 0 C1.65 0 3.3 0 5 0 C6.4783226 2.95664519 6.06032783 5.74229737 6 9 C6.5775 9.12375 7.155 9.2475 7.75 9.375 C10.02335767 10.00648824 11.9253529 10.88858191 14 12 C10.18243176 13.37432457 6.92744671 12.67975039 3 12 C1.39919849 7.99799622 2.70720308 4.95443764 4 1 C2.68 0.67 1.36 0.34 0 0 Z " fill="#B4B8C1" transform="translate(214,268)"/>
<path d="M0 0 C0.99 0.33 1.98 0.66 3 1 C2.71848913 2.31471568 2.42446661 3.62675767 2.125 4.9375 C1.96257812 5.66839844 1.80015625 6.39929688 1.6328125 7.15234375 C1 9 1 9 -1 10 C-2.6696807 10.01614884 -4.34028286 9.96515778 -6.0078125 9.87890625 C-6.99394531 9.83056641 -7.98007813 9.78222656 -8.99609375 9.73242188 C-10.54490234 9.64831055 -10.54490234 9.64831055 -12.125 9.5625 C-13.16527344 9.51029297 -14.20554688 9.45808594 -15.27734375 9.40429688 C-17.85185116 9.27439054 -20.42599296 9.13941748 -23 9 C-23 8.67 -23 8.34 -23 8 C-12.605 7.505 -12.605 7.505 -2 7 C-1.34 4.69 -0.68 2.38 0 0 Z " fill="#1D576B" transform="translate(227,127)"/>
<path d="M0 0 C1.125 5.75 1.125 5.75 0 8 C-1.98 8 -3.96 8 -6 8 C-6.33 6.02 -6.66 4.04 -7 2 C-4 0 -4 0 0 0 Z " fill="#81EEFB" transform="translate(289,123)"/>
<path d="M0 0 C0.66 0.33 1.32 0.66 2 1 C1.45730469 1.50789063 0.91460937 2.01578125 0.35546875 2.5390625 C-6.86612778 9.48740943 -9.35607193 15.2137929 -11 25 C-12.65 25.33 -14.3 25.66 -16 26 C-15.01 25.34 -14.02 24.68 -13 24 C-12.41897638 21.91433145 -12.41897638 21.91433145 -12.1875 19.5 C-10.92427033 12.2364294 -7.56176693 6.33900459 -2.125 1.375 C-1.42375 0.92125 -0.7225 0.4675 0 0 Z " fill="#E9ECF0" transform="translate(177,78)"/>
<path d="M0 0 C2.475 0.495 2.475 0.495 5 1 C5.33 2.32 5.66 3.64 6 5 C6.66 5 7.32 5 8 5 C8.25 11.625 8.25 11.625 6 15 C5.85304688 14.00419922 5.85304688 14.00419922 5.703125 12.98828125 C4.79525337 7.62714274 3.97963587 3.97963587 0 0 Z M-3 15 C-0.03 15 2.94 15 6 15 C2.81237635 17.12508244 0.73487777 17.5020163 -3 18 C-3 17.01 -3 16.02 -3 15 Z " fill="#114254" transform="translate(291,121)"/>
<path d="M0 0 C2.72691459 2.01554557 3.02980829 3.14158939 3.75 6.5625 C4 10 4 10 3 12 C-1.62 12 -6.24 12 -11 12 C-11 11.67 -11 11.34 -11 11 C-5.06 10.505 -5.06 10.505 1 10 C1 8.02 1 6.04 1 4 C0.34 4 -0.32 4 -1 4 C-0.67 2.68 -0.34 1.36 0 0 Z " fill="#5CC6D4" transform="translate(293,123)"/>
<path d="M0 0 C1.65 0 3.3 0 5 0 C5.99 1.98 6.98 3.96 8 6 C7.34 6.66 6.68 7.32 6 8 C2.875 7.625 2.875 7.625 0 7 C0 4.69 0 2.38 0 0 Z " fill="#83EEFB" transform="translate(211,124)"/>
<path d="M0 0 C0.33 0.66 0.66 1.32 1 2 C4.12963861 4.01593838 6.57372259 4.22174414 10.25 4.125 C11.58804688 4.09792969 11.58804688 4.09792969 12.953125 4.0703125 C13.62859375 4.04710937 14.3040625 4.02390625 15 4 C15 4.66 15 5.32 15 6 C10.61563621 8.19218189 4.63098598 7.15774649 0 6 C0 4.02 0 2.04 0 0 Z " fill="#154A59" transform="translate(241,154)"/>
<path d="M0 0 C1.19105377 3.5731613 1.0704232 5.40643641 0 9 C-2.5625 10.375 -2.5625 10.375 -5 11 C-5 11.66 -5 12.32 -5 13 C-7 14.625 -7 14.625 -9 16 C-9.33 15.01 -9.66 14.02 -10 13 C-9.52949219 12.64808594 -9.05898438 12.29617187 -8.57421875 11.93359375 C-4.0289526 8.32937649 -1.8681913 5.4946803 0 0 Z " fill="#939CA8" transform="translate(324,152)"/>
<path d="M0 0 C0.33 0.99 0.66 1.98 1 3 C0.33613281 2.96519531 -0.32773437 2.93039063 -1.01171875 2.89453125 C-7.97941834 2.67292931 -7.97941834 2.67292931 -14 6 C-14.33 5.01 -14.66 4.02 -15 3 C-9.89665983 1.094753 -5.53657294 -0.42589023 0 0 Z " fill="#13485A" transform="translate(290,118)"/>
<path d="M0 0 C2.31 0 4.62 0 7 0 C6.01 1.98 5.02 3.96 4 6 C1.03 5.505 1.03 5.505 -2 5 C-1 2 -1 2 0 0 Z " fill="#D2DAE3" transform="translate(310,89)"/>
<path d="M0 0 C0.33 0.99 0.66 1.98 1 3 C0.04738281 3.06058594 -0.90523438 3.12117187 -1.88671875 3.18359375 C-3.14097656 3.26738281 -4.39523437 3.35117188 -5.6875 3.4375 C-6.92886719 3.51871094 -8.17023438 3.59992188 -9.44921875 3.68359375 C-12.38180337 3.94491317 -15.13441617 4.34798379 -18 5 C-18 4.34 -18 3.68 -18 3 C-18.99 2.67 -19.98 2.34 -21 2 C-14.07 2 -7.14 2 0 2 C0 1.34 0 0.68 0 0 Z " fill="#1E5D70" transform="translate(296,133)"/>
<path d="M0 0 C0 0.99 0 1.98 0 3 C-2.31 3.66 -4.62 4.32 -7 5 C-7 4.34 -7 3.68 -7 3 C-8.98 3.33 -10.96 3.66 -13 4 C-8.93662608 1.29108405 -4.89951609 0 0 0 Z " fill="#AAADB6" transform="translate(317,260)"/>
<path d="M0 0 C7.09629025 -0.31461385 12.68284595 -0.44572039 19 3 C19 3.33 19 3.66 19 4 C13.49259758 4.25033647 13.49259758 4.25033647 11.09375 3.03125 C8.73348438 1.86873111 6.86045101 1.60533391 4.25 1.375 C3.45078125 1.30023438 2.6515625 1.22546875 1.828125 1.1484375 C1.22484375 1.09945312 0.6215625 1.05046875 0 1 C0 0.67 0 0.34 0 0 Z " fill="#E7E9EE" transform="translate(256,55)"/>
<path d="M0 0 C1.98 0.66 3.96 1.32 6 2 C6 2.66 6 3.32 6 4 C7.9600281 5.63676257 7.9600281 5.63676257 10 7 C5.6109185 6.48964169 2.66291938 5.47785723 -1 3 C-0.67 2.01 -0.34 1.02 0 0 Z " fill="#B5B7BF" transform="translate(179,169)"/>
<path d="M0 0 C0.66 0 1.32 0 2 0 C2.33 2.31 2.66 4.62 3 7 C1.35 7.33 -0.3 7.66 -2 8 C-1.47731534 5.23723823 -0.89130413 2.6739124 0 0 Z " fill="#5DE0EE" transform="translate(206,126)"/>
<path d="M0 0 C0.66 0 1.32 0 2 0 C2 1.98 2 3.96 2 6 C0.02 6.33 -1.96 6.66 -4 7 C-4 6.01 -4 5.02 -4 4 C-3.01 3.67 -2.02 3.34 -1 3 C-0.67 2.01 -0.34 1.02 0 0 Z " fill="#61E4F1" transform="translate(292,127)"/>
<path d="M0 0 C-0.33 1.32 -0.66 2.64 -1 4 C-1.66 4 -2.32 4 -3 4 C-3.33 5.65 -3.66 7.3 -4 9 C-4.99 7.68 -5.98 6.36 -7 5 C-2.25 0 -2.25 0 0 0 Z " fill="#0E1F29" transform="translate(187,97)"/>
<path d="M0 0 C0.66 0 1.32 0 2 0 C2 1.32 2 2.64 2 4 C0.68 4.33 -0.64 4.66 -2 5 C-2.33 6.65 -2.66 8.3 -3 10 C-3.33 10 -3.66 10 -4 10 C-4.4025937 6.47730515 -4.13372795 5.20059192 -2.125 2.1875 C-1.42375 1.465625 -0.7225 0.74375 0 0 Z " fill="#5FC9D6" transform="translate(208,121)"/>
<path d="M0 0 C1.2065625 0.0309375 1.2065625 0.0309375 2.4375 0.0625 C2.7675 2.3725 3.0975 4.6825 3.4375 7.0625 C2.4475 7.5575 2.4475 7.5575 1.4375 8.0625 C1.169375 7.464375 0.90125 6.86625 0.625 6.25 C-0.54743467 4.09025192 -1.75619282 2.70459744 -3.5625 1.0625 C-2.5625 0.0625 -2.5625 0.0625 0 0 Z " fill="#195265" transform="translate(223.5625,119.9375)"/>
<path d="M0 0 C0.66 0.99 1.32 1.98 2 3 C1.01 3.33 0.02 3.66 -1 4 C-1.33 6.31 -1.66 8.62 -2 11 C-2.33 11 -2.66 11 -3 11 C-3.36923077 4.6 -3.36923077 4.6 -1.5 1.5625 C-1.005 1.046875 -0.51 0.53125 0 0 Z " fill="#50BBC7" transform="translate(277,123)"/>
<path d="M0 0 C2.76276177 0.52268466 5.3260876 1.10869587 8 2 C8 2.66 8 3.32 8 4 C5.69 3.67 3.38 3.34 1 3 C0.67 2.01 0.34 1.02 0 0 Z " fill="#A6ABB3" transform="translate(183,260)"/>
<path d="M0 0 C2.475 0.495 2.475 0.495 5 1 C5.33 1.99 5.66 2.98 6 4 C4.125 4.625 4.125 4.625 2 5 C1.34 4.34 0.68 3.68 0 3 C0 2.01 0 1.02 0 0 Z " fill="#101E29" transform="translate(312,97)"/>
<path d="M0 0 C0.66 0.66 1.32 1.32 2 2 C0.1746875 1.9690625 0.1746875 1.9690625 -1.6875 1.9375 C-4.91977322 1.93175884 -7.84934741 2.21233685 -11 3 C-8.20535416 -1.19196876 -4.55778888 -0.36172928 0 0 Z " fill="#54B1BF" transform="translate(289,120)"/>
<path d="M0 0 C3.63 0.33 7.26 0.66 11 1 C11 1.33 11 1.66 11 2 C5.04296875 3.7578125 5.04296875 3.7578125 3 4 C2.01 3.34 1.02 2.68 0 2 C0 1.34 0 0.68 0 0 Z " fill="#103E50" transform="translate(203,135)"/>
<path d="M0 0 C2.7972908 2.06756277 3.02692273 3.14440371 3.6875 6.6875 C3.790625 7.780625 3.89375 8.87375 4 10 C2 7 2 7 2 4 C1.01 4 0.02 4 -1 4 C-0.67 2.68 -0.34 1.36 0 0 Z " fill="#5ABBC7" transform="translate(293,123)"/>
<path d="M0 0 C0 0.33 0 0.66 0 1 C-2.64 1 -5.28 1 -8 1 C-8.33 0.34 -8.66 -0.32 -9 -1 C-5.79937313 -2.60031344 -3.27728194 -1.03173691 0 0 Z " fill="#5ACBDA" transform="translate(254,158)"/>
<path d="M0 0 C0.33 0.99 0.66 1.98 1 3 C1.99 3.33 2.98 3.66 4 4 C4 4.66 4 5.32 4 6 C1.69 6 -0.62 6 -3 6 C-2.01 5.67 -1.02 5.34 0 5 C0 3.35 0 1.7 0 0 Z " fill="#62D5E4" transform="translate(278,129)"/>
<path d="M0 0 C0.99 0 1.98 0 3 0 C2.34 3.63 1.68 7.26 1 11 C0.67 11 0.34 11 0 11 C0 7.37 0 3.74 0 0 Z " fill="#0B4152" transform="translate(202,124)"/>
<path d="M0 0 C0.66 0 1.32 0 2 0 C2 0.66 2 1.32 2 2 C1.34 2 0.68 2 0 2 C0 1.34 0 0.68 0 0 Z " fill="#7F7FFF" transform="translate(267,394)"/>
<path d="M0 0 C0.99 0.495 0.99 0.495 2 1 C1.01 1.495 1.01 1.495 0 2 C0 1.34 0 0.68 0 0 Z " fill="#C0C0FF" transform="translate(312,390)"/>
<path d="" fill="#FFFFFF" transform="translate(0,0)"/>
<path d="" fill="#FFFFFF" transform="translate(0,0)"/>
<path d="" fill="#FFFFFF" transform="translate(0,0)"/>
<path d="" fill="#FFFFFF" transform="translate(0,0)"/>
<path d="" fill="#FFFFFF" transform="translate(0,0)"/>
<path d="" fill="#FFFFFF" transform="translate(0,0)"/>
<path d="" fill="#FFFFFF" transform="translate(0,0)"/>
<path d="" fill="#FFFFFF" transform="translate(0,0)"/>
<path d="" fill="#FFFFFF" transform="translate(0,0)"/>
<path d="" fill="#FFFFFF" transform="translate(0,0)"/>
<path d="" fill="#0000FF" transform="translate(0,0)"/>
<path d="" fill="#FFFFFF" transform="translate(0,0)"/>
<path d="" fill="#FFFFFF" transform="translate(0,0)"/>
<path d="" fill="#FFFFFF" transform="translate(0,0)"/>
<path d="" fill="#FFFFFF" transform="translate(0,0)"/>
<path d="" fill="#00FFFF" transform="translate(0,0)"/>
<path d="" fill="#0000FF" transform="translate(0,0)"/>
<path d="" fill="#FFFFFF" transform="translate(0,0)"/>
<path d="" fill="#FFFFFF" transform="translate(0,0)"/>
<path d="" fill="#FFFFFF" transform="translate(0,0)"/>
<path d="" fill="#FFFFFF" transform="translate(0,0)"/>
<path d="" fill="#FFFFFF" transform="translate(0,0)"/>
<path d="" fill="#FFFFFF" transform="translate(0,0)"/>
<path d="" fill="#FFFFFF" transform="translate(0,0)"/>
<path d="" fill="#FFFFFF" transform="translate(0,0)"/>
<path d="" fill="#FFFFFF" transform="translate(0,0)"/>
<path d="" fill="#FFFFFF" transform="translate(0,0)"/>
<path d="" fill="#FFFFFF" transform="translate(0,0)"/>
<path d="" fill="#FFFFFF" transform="translate(0,0)"/>
<path d="" fill="#FFFFFF" transform="translate(0,0)"/>
<path d="" fill="#FFFFFF" transform="translate(0,0)"/>
<path d="" fill="#FFFFFF" transform="translate(0,0)"/>
<path d="" fill="#FFFFFF" transform="translate(0,0)"/>
<path d="" fill="#FFFFFF" transform="translate(0,0)"/>
<path d="" fill="#FFFFFF" transform="translate(0,0)"/>
<path d="" fill="#FFFFFF" transform="translate(0,0)"/>
<path d="" fill="#FFFFFF" transform="translate(0,0)"/>
<path d="" fill="#FFFFFF" transform="translate(0,0)"/>
<path d="" fill="#FFFFFF" transform="translate(0,0)"/>
<path d="" fill="#FFFFFF" transform="translate(0,0)"/>
<path d="" fill="#FFFFFF" transform="translate(0,0)"/>
<path d="" fill="#FFFFFF" transform="translate(0,0)"/>
<path d="" fill="#FFFFFF" transform="translate(0,0)"/>
<path d="" fill="#FFFFFF" transform="translate(0,0)"/>
<path d="" fill="#FFFFFF" transform="translate(0,0)"/>
<path d="" fill="#FFFFFF" transform="translate(0,0)"/>
<path d="" fill="#FFFFFF" transform="translate(0,0)"/>
<path d="" fill="#FFFFFF" transform="translate(0,0)"/>
<path d="" fill="#FFFFFF" transform="translate(0,0)"/>
<path d="" fill="#FFFFFF" transform="translate(0,0)"/>
<path d="" fill="#FFFFFF" transform="translate(0,0)"/>
<path d="" fill="#FFFFFF" transform="translate(0,0)"/>
<path d="" fill="#FFFFFF" transform="translate(0,0)"/>
<path d="" fill="#FFFFFF" transform="translate(0,0)"/>
<path d="" fill="#FFFFFF" transform="translate(0,0)"/>
<path d="" fill="#FFFFFF" transform="translate(0,0)"/>
<path d="" fill="#FFFFFF" transform="translate(0,0)"/>
<path d="" fill="#FFFFFF" transform="translate(0,0)"/>
<path d="" fill="#FFFFFF" transform="translate(0,0)"/>
<path d="" fill="#FFFFFF" transform="translate(0,0)"/>
<path d="" fill="#FFFFFF" transform="translate(0,0)"/>
<path d="" fill="#FFFFFF" transform="translate(0,0)"/>
<path d="" fill="#FFFFFF" transform="translate(0,0)"/>
<path d="" fill="#FFFFFF" transform="translate(0,0)"/>
<path d="" fill="#FFFFFF" transform="translate(0,0)"/>
<path d="" fill="#FFFFFF" transform="translate(0,0)"/>
<path d="" fill="#FFFFFF" transform="translate(0,0)"/>
<path d="" fill="#FFFFFF" transform="translate(0,0)"/>
<path d="" fill="#FFFFFF" transform="translate(0,0)"/>
</svg>
